<svg xmlns="http://www.w3.org/2000/svg" xml:space="preserve" width="300px"version="1.1" style="shape-rendering:geometricPrecision; text-rendering:geometricPrecision; image-rendering:optimizeQuality; fill-rule:evenodd; clip-rule:evenodd"
viewBox="0 0 717 325"
 xmlns:xlink="http://www.w3.org/1999/xlink">
 <defs>
  <style type="text/css">
   <![CDATA[
    .fil1 {fill:#F04D22}
    .fil4 {fill:#F7A18A}
    .fil3 {fill:#FAB594}
    .fil2 {fill:#FAB998}
    .fil0 {fill:#FFFEFE}
   ]]>
  </style>
 </defs>
 <g id="Vrstva_x0020_1">
  <metadata id="CorelCorpID_0Corel-Layer"/>
  <g id="_1611333759888">
   <g>
    <path class="fil0" d="M532 176l1 37c-2,-1 -8,-12 -11,-16 -4,-5 -7,-12 -11,-16l-9 1 2 61 10 -2 -1 -37c3,3 4,5 6,8l16 24 10 -1 -2 -60c-4,-2 -7,0 -11,1z"/>
    <path class="fil0" d="M401 240c-4,-31 20,-39 23,-16 4,32 -20,39 -23,16zm9 -39c-14,4 -22,15 -22,34 0,17 7,33 27,28 32,-8 29,-70 -5,-62z"/>
    <path class="fil0" d="M466 200c12,-4 14,8 14,18 1,25 -22,35 -24,6 0,-10 2,-21 10,-24zm0 -11c-4,1 -6,2 -10,5 -19,13 -18,65 15,57 31,-8 29,-70 -5,-62z"/>
    <path class="fil0" d="M346 264l-1 11c10,0 21,0 28,-6 9,-6 12,-16 7,-24 -5,-10 -17,-8 -22,-13 -3,-4 -1,-9 4,-10 5,-2 9,-2 15,-1l1 -10c-32,-4 -40,20 -29,30 6,5 19,5 20,12 2,14 -20,11 -23,11z"/>
    <path class="fil0" d="M280 85c1,-2 0,-1 2,-2l0 6 3 43c6,0 6,1 6,-4l-5 -56c-7,0 -7,1 -9,7 -1,4 -2,8 -4,12l-8 24 -16 -36 -7 2 -1 60c7,0 6,-1 6,-8l0 -42c4,3 13,28 17,33 6,-1 5,-2 6,-8l10 -31z"/>
    <path class="fil0" d="M334 122c1,-5 -2,-40 -2,-49 3,2 6,8 8,11 2,3 5,7 7,11 2,3 12,19 14,21l5 -1c1,-7 -1,-41 -2,-53 0,-1 0,-3 0,-4 -1,-7 1,5 0,-2 0,0 0,0 0,0 0,-1 -1,-1 -1,-1l-4 1c-1,5 1,41 1,49 0,0 0,0 0,-1l-1 -1c0,0 -1,-1 -1,-1l-26 -40 -5 1c-1,4 1,37 1,45 0,3 0,5 0,8l1 5c0,1 0,1 0,1 0,0 0,1 0,1l5 -1z"/>
    <path class="fil0" d="M205 93c23,-4 23,46 2,51 -15,4 -19,-11 -19,-24 0,-13 6,-25 17,-27zm23 29c5,-46 -41,-44 -46,-7 -2,16 3,35 19,36 16,0 25,-14 27,-29z"/>
    <path class="fil0" d="M415 99c-8,2 -15,7 -24,1 -7,-7 -12,-33 3,-45 14,-10 20,2 21,-10 -24,-2 -39,13 -37,38 2,11 6,20 14,24 11,5 20,-2 28,-5l-1 -30 -5 1 1 26z"/>
    <path class="fil0" d="M174 149c-3,0 -12,9 -22,4 -11,-5 -16,-31 -3,-44 9,-9 17,-5 22,-8l1 -4c-24,-1 -38,12 -37,37 1,12 5,21 13,24 9,5 23,0 28,-5l-2 -4z"/>
    <path class="fil0" d="M554 171l2 41 11 -2 0 -41c-4,-1 -9,1 -13,2z"/>
    <polygon class="fil0" points="307,128 312,127 310,66 304,67 "/>
    <path class="fil0" d="M556 219l0 12c5,1 9,0 12,-2l0 -12c-5,0 -8,1 -12,2z"/>
   </g>
   <g>
    <path class="fil1" d="M228 122c-2,15 -11,29 -27,29 -16,-1 -21,-20 -19,-36 5,-37 51,-39 46,7zm-54 27l2 4c-5,5 -19,10 -28,5 -8,-3 -12,-12 -13,-24 -1,-25 13,-38 37,-37l-1 4c-5,3 -13,-1 -22,8 -13,13 -8,39 3,44 10,5 19,-4 22,-4zm130 -82l6 -1 2 61 -5 1 -3 -61zm-22 22l-1 -3c-1,-1 -1,-1 -1,-1l-10 31c-1,6 0,7 -6,8 -4,-5 -13,-30 -17,-33l0 42c0,7 1,8 -6,8l1 -60 7 -2 16 36 8 -24c2,-4 3,-8 4,-12 2,-6 2,-7 9,-7l5 56c0,5 0,4 -6,4l-3 -43zm52 33l-5 1c0,0 0,-1 0,-1 0,0 0,0 0,-1l-1 -5c0,-3 0,-5 0,-8 0,-8 -2,-41 -1,-45l5 -1 26 40c0,0 1,1 1,1l1 1c0,1 0,1 0,1 0,-8 -2,-44 -1,-49l4 -1c0,0 1,0 1,1 0,0 0,0 0,0 1,7 -1,-5 0,2 0,1 0,3 0,4 1,12 3,46 2,53l-5 1c-2,-2 -12,-18 -14,-21 -2,-4 -5,-8 -7,-11 -2,-3 -5,-9 -8,-11 0,9 3,44 2,49zm81 -23l-1 -26 5 -1 1 30c-8,3 -17,10 -28,5 -8,-4 -12,-13 -14,-24 -2,-25 13,-40 37,-38 -1,12 -7,0 -21,10 -15,12 -10,38 -3,45 9,6 16,1 24,-1zm-126 59l212 -49 -20 -90 -4 -19c-1,-1 -10,2 -14,3l-74 17c-10,2 -20,4 -30,7 -37,9 -82,18 -119,27 -20,5 -40,9 -59,14l-90 21c-10,2 -20,4 -30,6 -10,2 -20,4 -30,7l-31 8c6,1 55,36 65,41 0,3 -28,45 -32,50 -2,4 -10,14 -10,17 2,-1 13,-2 17,-3l50 -11c6,-1 11,-2 17,-4l49 -11c32,-8 68,-15 100,-23 7,-2 28,-6 33,-8z"/>
    <path class="fil1" d="M410 201c34,-8 37,54 5,62 -20,5 -27,-11 -27,-28 0,-19 8,-30 22,-34zm-165 124l0 0 -22 -95c-1,-4 -2,-10 -3,-13 1,-1 1,-1 2,-1l213 -49 2 -1c5,0 13,-3 17,-4 6,-1 10,-2 16,-3 13,-3 213,-50 224,-50 -1,5 -36,55 -42,66 3,2 6,4 9,6l41 27c3,2 14,7 15,11 -5,0 -53,11 -61,12 -9,2 -20,5 -29,7 -10,2 -20,5 -29,7 -11,2 -20,4 -30,7 -28,6 -60,13 -88,20 -35,8 -82,19 -117,27 -13,3 -112,26 -118,26zm311 -106c4,-1 7,-2 12,-2l0 12c-3,2 -7,3 -12,2l0 -12zm-90 -30c34,-8 36,54 5,62 -33,8 -34,-44 -15,-57 4,-3 6,-4 10,-5zm-120 75c3,0 25,3 23,-11 -1,-7 -14,-7 -20,-12 -11,-10 -3,-34 29,-30l-1 10c-6,-1 -10,-1 -15,1 -5,1 -7,6 -4,10 5,5 17,3 22,13 5,8 2,18 -7,24 -7,6 -18,6 -28,6l1 -11zm186 -88c4,-1 7,-3 11,-1l2 60 -10 1 -16 -24c-2,-3 -3,-5 -6,-8l1 37 -10 2 -2 -61 9 -1c4,4 7,11 11,16 3,4 9,15 11,16l-1 -37zm22 -5c4,-1 9,-3 13,-2l0 41 -11 2 -2 -41z"/>
    <path class="fil1" d="M205 93c-11,2 -17,14 -17,27 0,13 4,28 19,24 21,-5 21,-55 -2,-51z"/>
    <path class="fil1" d="M466 200c-8,3 -10,14 -10,24 2,29 25,19 24,-6 0,-10 -2,-22 -14,-18z"/>
    <path class="fil1" d="M401 240c3,23 27,16 23,-16 -3,-23 -27,-15 -23,16z"/>
   </g>
   <path class="fil2" d="M289 158l-62 54c-3,1 -3,2 -5,4l213 -49c1,-2 -1,-1 2,-1 3,-4 29,-24 34,-29 5,-5 10,-9 16,-14l17 -14c-2,-4 -4,-18 -6,-22 -2,-8 -3,-15 -5,-24l-10 -39c-1,-5 0,-4 -2,-5l20 90 -212 49z"/>
   <path class="fil3" d="M481 19c1,-4 -1,-7 -1,-10 -1,-2 -1,-2 -1,-4 -1,-4 -1,-3 -2,-5l4 19z"/>
   <path class="fil4" d="M280 85c0,0 0,0 1,1l1 3 0 -6c-2,1 -1,0 -2,2z"/>
  </g>
 </g>
</svg>
